<?xml version="1.0"?><svg xmlns="http://www.w3.org/2000/svg" viewBox="0 0 59.57 14.62"><g id="ff82f6ce-f807-408f-bf24-ced9c6d1ec96" data-name="Calque 2"><g id="f5b18b39-17bb-48a9-9b78-345a3d8b34a5" data-name="Calque 1"><path d="M14.76,14.49v-2.3q0-6,0-12V0H0V14.62H14.77A.57.57,0,0,0,14.76,14.49Zm-1.32-1.33h-.91s-.08-.05-.1-.09c-.18-.28-.35-.57-.53-.86l-.15.09A5.63,5.63,0,0,1,7.28,13a2.42,2.42,0,0,1-2-2.42,4.44,4.44,0,0,1,.07-1.09A2.34,2.34,0,0,1,6.82,7.7a5.28,5.28,0,0,1,2.07-.42,15.87,15.87,0,0,1,2.76.16h.11c0-.44,0-.88-.07-1.31A1.24,1.24,0,0,0,11,5.22,3.26,3.26,0,0,0,9.62,4.9a10.44,10.44,0,0,0-3.38.39l-.16,0V4l.8-.2a10,10,0,0,1,4-.1,4,4,0,0,1,1.25.43A2.46,2.46,0,0,1,13.43,6.2c0,.12,0,.25,0,.37Z" style="fill:#ec1d25"/><path d="M13.43,6.2a2.46,2.46,0,0,0-1.34-2.12,4,4,0,0,0-1.25-.43,10,10,0,0,0-4,.1l-.8.2V5.33l.16,0A10.44,10.44,0,0,1,9.62,4.9,3.26,3.26,0,0,1,11,5.22a1.24,1.24,0,0,1,.73.92c.06.43.05.87.07,1.31h-.11a15.87,15.87,0,0,0-2.76-.16,5.28,5.28,0,0,0-2.07.42A2.34,2.34,0,0,0,5.38,9.47a4.44,4.44,0,0,0-.07,1.09,2.42,2.42,0,0,0,2,2.42,5.63,5.63,0,0,0,4.47-.68l.15-.09c.18.29.35.58.53.86,0,0,.07.09.1.09h.91V6.57C13.44,6.45,13.44,6.32,13.43,6.2Zm-1.7,4.58c0,.05-.05.1-.09.14a4.36,4.36,0,0,1-2.16.81,5.9,5.9,0,0,1-1.26,0A1.32,1.32,0,0,1,7,10.39,1.43,1.43,0,0,1,8.32,8.74a6.72,6.72,0,0,1,1.27-.08c.69,0,1.37.11,2.06.16l.09,0C11.74,9.5,11.74,10.14,11.73,10.78Z" style="fill:#fff"/><path d="M59.57,10.82c0,.09,0,.19-.07.29a2.21,2.21,0,0,1-1.14,1.49,4.23,4.23,0,0,1-1.7.5,12.53,12.53,0,0,1-4.48-.38l0,0V11.25l1,.26a9.55,9.55,0,0,0,3.15.22,2.83,2.83,0,0,0,.75-.18,1.17,1.17,0,0,0,.82-1.32,1.16,1.16,0,0,0-1.09-1.08l-.57,0c-.61,0-1.23,0-1.84,0a4.16,4.16,0,0,1-1.1-.24,2.13,2.13,0,0,1-1.38-1.49,3.85,3.85,0,0,1-.1-1.62A2.24,2.24,0,0,1,53,4a4.45,4.45,0,0,1,1.63-.48,12.41,12.41,0,0,1,4.5.38l.07,0V5.43l-.15,0a10.75,10.75,0,0,0-3.78-.48,3.24,3.24,0,0,0-1.11.23,1.25,1.25,0,0,0-.68,1.75,1.06,1.06,0,0,0,.79.6,3.18,3.18,0,0,0,.62.06c.65,0,1.3,0,2,0A5,5,0,0,1,58,7.82a2.25,2.25,0,0,1,1.53,1.85l.06.22Z" style="fill:#242021"/><path d="M44.24,8.82H37.47a2.57,2.57,0,0,0,2,2.8,7.52,7.52,0,0,0,2.32.13,9.22,9.22,0,0,0,2-.31h.09v1.39c-.46.08-.92.19-1.38.24a11.41,11.41,0,0,1-2.74,0,4.62,4.62,0,0,1-2.31-.83A3.75,3.75,0,0,1,36,10a7.48,7.48,0,0,1,0-3.7,3.54,3.54,0,0,1,3.07-2.75,6.52,6.52,0,0,1,2.49,0A3.22,3.22,0,0,1,44.23,6.4,8.18,8.18,0,0,1,44.24,8.82ZM42.7,7.39c0-.23,0-.45-.08-.67a2,2,0,0,0-1.81-1.81,4.06,4.06,0,0,0-1.39,0,2.33,2.33,0,0,0-1.94,2.46Z" style="fill:#242021"/><path d="M33.67,3.78V5.14L32.85,5A10.14,10.14,0,0,0,30.1,5a2.67,2.67,0,0,0-2.42,2.58,5.38,5.38,0,0,0,.18,2.22,2.67,2.67,0,0,0,2.45,2,10.29,10.29,0,0,0,3.18-.18l.17,0V12.9c-.32,0-.66.12-1,.16a10.8,10.8,0,0,1-2.84,0,4.91,4.91,0,0,1-2.18-.82,3.79,3.79,0,0,1-1.46-2.15,7.11,7.11,0,0,1-.09-3.46A3.73,3.73,0,0,1,29,3.74a8.11,8.11,0,0,1,2.69-.22c.6,0,1.2.14,1.8.22A.53.53,0,0,1,33.67,3.78Z" style="fill:#242021"/><path d="M23.85,11.51v1.4c-.41.06-.82.14-1.24.18A9.18,9.18,0,0,1,19.84,13a6,6,0,0,1-1.19-.34,3.71,3.71,0,0,1-2.26-2.55,6.91,6.91,0,0,1-.14-3.32A3.75,3.75,0,0,1,19.2,3.74a8,8,0,0,1,2.71-.22c.59,0,1.19.14,1.78.22a.47.47,0,0,1,.16,0V5.14L23,5a10.21,10.21,0,0,0-2.76,0,2.65,2.65,0,0,0-2.38,2.46A5.57,5.57,0,0,0,18,9.56a2.73,2.73,0,0,0,2.5,2.18,10.75,10.75,0,0,0,3.2-.2Z" style="fill:#242021"/><path d="M47.19,3.5h1.69v9.66H47.19Z" style="fill:#242021"/><path d="M48.88,0v1.6H47.19V0Z" style="fill:#ec1d25"/><path d="M11.74,8.84c0,.66,0,1.3,0,1.94,0,.05-.05.1-.09.14a4.36,4.36,0,0,1-2.16.81,5.9,5.9,0,0,1-1.26,0A1.32,1.32,0,0,1,7,10.39,1.43,1.43,0,0,1,8.32,8.74a6.72,6.72,0,0,1,1.27-.08c.69,0,1.37.11,2.06.16Z" style="fill:#ec1d25"/></g></g></svg>